<svg width="30" height="23" viewBox="0 0 30 23" fill="none" xmlns="http://www.w3.org/2000/svg">
<path d="M28.5264 21.7002C28.293 21.8925 27.9988 22 27.6924 22H2.30762C2.00124 22 1.70695 21.8925 1.47363 21.7002H28.5264ZM1.1543 1H28.8457C28.8875 1 28.9275 1.0165 28.9561 1.04492C28.9845 1.07331 29 1.11169 29 1.15039V20.7002C29 21.007 28.89 21.3025 28.6924 21.5361V1.49707L27.0176 3.02637L15.1055 13.9102C15.0773 13.936 15.0395 13.9512 15 13.9512C14.9605 13.9512 14.9227 13.936 14.8945 13.9102L2.98242 3.02637L1.30762 1.49707V21.5361C1.10996 21.3025 1.00005 21.007 1 20.7002V1.15039C1 1.11169 1.01546 1.07331 1.04395 1.04492C1.07253 1.0165 1.11248 1 1.1543 1ZM3.44629 3.03809L14.3252 12.9785L15 13.5947L15.6748 12.9785L26.5537 3.03809L28.4561 1.2998H1.54395L3.44629 3.03809Z" stroke="#0B2545" stroke-width="2"/>
</svg>
