<svg width="24" height="31" viewBox="0 0 24 31" fill="none" xmlns="http://www.w3.org/2000/svg">
<path d="M12 1C14.9126 1 17.7094 2.17376 19.7734 4.26855C21.838 6.36384 23 9.20927 23 12.1787C23 16.0905 21.2665 20.3264 17.8496 24.4492L17.5137 24.8477C16.5432 25.9783 15.5043 27.0464 14.4023 28.0449L12.4805 29.7861H21.8184C21.8375 29.7862 21.8589 29.7933 21.877 29.8115C21.8956 29.8305 21.9091 29.8596 21.9092 29.8926C21.9092 29.9257 21.8957 29.9546 21.877 29.9736C21.8588 29.992 21.8376 30 21.8184 30H2.18164C2.16239 30 2.14121 29.992 2.12305 29.9736C2.10433 29.9546 2.09082 29.9257 2.09082 29.8926C2.09089 29.8596 2.10438 29.8305 2.12305 29.8115C2.14115 29.7933 2.16249 29.7862 2.18164 29.7861H11.5195L9.59766 28.0449C8.63346 27.1712 7.71764 26.2441 6.85352 25.2686L6.48633 24.8477C2.84238 20.6006 1.00004 16.2173 1 12.1787C1 9.20927 2.16203 6.36384 4.22656 4.26855C6.29064 2.17376 9.08743 1 12 1ZM12 1.21387C9.12603 1.21387 6.37235 2.37286 4.34473 4.43066C2.31766 6.48795 1.18164 9.27558 1.18164 12.1787C1.18169 16.451 3.21518 20.2959 5.44824 23.2432C7.69063 26.2027 10.2156 28.3638 11.376 29.29L12 29.7881L12.624 29.29C13.7844 28.3638 16.3094 26.2027 18.5518 23.2432C20.7848 20.2959 22.8183 16.451 22.8184 12.1787C22.8184 9.27558 21.6823 6.48795 19.6553 4.43066C17.6276 2.37286 14.874 1.21387 12 1.21387ZM11.1338 7.72949C11.9949 7.55565 12.8881 7.64493 13.7002 7.98633C14.5123 8.32782 15.209 8.9073 15.7002 9.65332C16.1914 10.3996 16.4541 11.2785 16.4541 12.1787C16.4541 13.3863 15.9815 14.5412 15.1445 15.3906C14.308 16.2396 13.1766 16.7139 12 16.7139C11.1225 16.7139 10.2633 16.4504 9.53125 15.9541C8.79888 15.4575 8.22568 14.7494 7.88672 13.9189C7.54774 13.0884 7.45884 12.1737 7.63184 11.291C7.80483 10.4084 8.23135 9.59922 8.85547 8.96582C9.4794 8.33268 10.2726 7.90334 11.1338 7.72949ZM12.8359 7.94043C12.0044 7.77266 11.1427 7.85961 10.3604 8.18848C9.57796 8.51738 8.91108 9.0728 8.44336 9.7832C7.97575 10.4935 7.72754 11.3273 7.72754 12.1787C7.72758 13.32 8.17404 14.418 8.97363 15.2295C9.77372 16.0413 10.8621 16.5 12 16.5C12.8484 16.5 13.6769 16.2443 14.3799 15.7676C15.0825 15.291 15.6277 14.6149 15.9492 13.8271C16.2707 13.0394 16.3551 12.1732 16.1914 11.3379C16.0276 10.5026 15.6227 9.73314 15.0264 9.12793C14.4298 8.52256 13.6675 8.10831 12.8359 7.94043Z" stroke="#0A0A0A" stroke-width="2"/>
</svg>
