<svg width="33" height="33" viewBox="0 0 33 33" fill="none" xmlns="http://www.w3.org/2000/svg">
<path d="M19.5614 1C22.7306 1.33409 25.6908 2.74038 27.9526 4.98631C30.2144 7.23223 31.6422 10.1832 32 13.3513M19.5614 7.22233C21.0906 7.52402 22.4939 8.27862 23.589 9.38819C24.6842 10.4978 25.4207 11.9111 25.703 13.4447M31.9225 24.2095V28.8762C31.9242 29.3094 31.8355 29.7383 31.662 30.1352C31.4886 30.5322 31.2341 30.8885 30.9151 31.1814C30.596 31.4743 30.2193 31.6972 29.8091 31.836C29.3989 31.9748 28.9642 32.0264 28.5329 31.9874C23.7485 31.4672 19.1527 29.8316 15.1148 27.2117C11.3581 24.8234 8.17309 21.6368 5.78592 17.8782C3.15824 13.82 1.52298 9.19962 1.01262 4.39132C0.973766 3.96115 1.02486 3.5276 1.16266 3.11827C1.30046 2.70894 1.52193 2.3328 1.81299 2.0138C2.10404 1.6948 2.4583 1.43993 2.8532 1.26541C3.24811 1.0909 3.675 1.00056 4.10671 1.00015H8.77118C9.52574 0.992721 10.2573 1.26006 10.8294 1.75233C11.4015 2.2446 11.7752 2.92821 11.8808 3.67575C12.0777 5.16922 12.4428 6.6356 12.9692 8.04694C13.1784 8.60372 13.2237 9.20883 13.0997 9.79057C12.9756 10.3723 12.6876 10.9063 12.2695 11.3292L10.2949 13.3048C12.5083 17.1993 15.7313 20.4239 19.6238 22.6383L21.5984 20.6627C22.0212 20.2445 22.5549 19.9563 23.1364 19.8322C23.7178 19.7081 24.3226 19.7534 24.8791 19.9627C26.2898 20.4894 27.7554 20.8546 29.2482 21.0516C30.0034 21.1582 30.6932 21.5388 31.1863 22.1211C31.6794 22.7033 31.9414 23.4466 31.9225 24.2095Z" stroke="#0B2545" stroke-width="2" stroke-linecap="round" stroke-linejoin="round"/>
</svg>
