<svg width="18" height="18" viewBox="0 0 18 18" fill="none" xmlns="http://www.w3.org/2000/svg">
<g clip-path="url(#clip0_466_131)">
<path d="M5.25 1.5H12.75C14.8197 1.5 16.5 3.18032 16.5 5.25V12.75C16.5 14.8197 14.8197 16.5 12.75 16.5H5.25C3.18032 16.5 1.5 14.8197 1.5 12.75V5.25C1.5 3.18032 3.18032 1.5 5.25 1.5V1.5" stroke="#0B2545" stroke-width="1.5" stroke-linecap="round" stroke-linejoin="round"/>
<path d="M11.9999 8.5275C12.1897 9.80773 11.5371 11.0654 10.3811 11.6473C9.22503 12.2291 7.82615 12.004 6.91099 11.0889C5.99583 10.1737 5.77073 8.77483 6.3526 7.61878C6.93448 6.46273 8.19213 5.81016 9.47236 6C10.7796 6.19385 11.806 7.22027 11.9999 8.5275M13.1249 4.875H13.1324" stroke="#0B2545" stroke-width="1.5" stroke-linecap="round" stroke-linejoin="round"/>
</g>
<defs>
<clipPath id="clip0_466_131">
<rect width="18" height="18" fill="white"/>
</clipPath>
</defs>
</svg>
