<svg width="40" height="40" viewBox="0 0 40 40" fill="none" xmlns="http://www.w3.org/2000/svg">
<path d="M33.3337 16.6663C33.3337 24.988 24.102 33.6547 21.002 36.3313C20.4087 36.7775 19.5919 36.7775 18.9987 36.3313C15.8987 33.6547 6.66699 24.988 6.66699 16.6663C6.66699 9.30747 12.6415 3.33301 20.0003 3.33301C27.3592 3.33301 33.3337 9.30747 33.3337 16.6663" stroke="white" stroke-width="3.33333" stroke-linecap="round" stroke-linejoin="round"/>
<path d="M15 16.6665C15 19.4261 17.2404 21.6665 20 21.6665C22.7596 21.6665 25 19.4261 25 16.6665C25 13.9069 22.7596 11.6665 20 11.6665C17.2404 11.6665 15 13.9069 15 16.6665V16.6665" stroke="white" stroke-width="3.33333" stroke-linecap="round" stroke-linejoin="round"/>
</svg>
