<svg width="40" height="40" viewBox="0 0 40 40" fill="none" xmlns="http://www.w3.org/2000/svg">
<path d="M26.6663 35V31.6667C26.6663 27.9848 23.6816 25 19.9997 25H9.99967C6.31778 25 3.33301 27.9848 3.33301 31.6667V35M26.6663 5.21338C29.6067 5.97565 31.66 8.62916 31.66 11.6667C31.66 14.7043 29.6067 17.3578 26.6663 18.12M36.6663 35V31.6667C36.6641 28.6286 34.608 25.9762 31.6663 25.2167" stroke="white" stroke-width="3.33333" stroke-linecap="round" stroke-linejoin="round"/>
<path d="M8.33301 11.6667C8.33301 15.3461 11.3202 18.3333 14.9997 18.3333C18.6791 18.3333 21.6663 15.3461 21.6663 11.6667C21.6663 7.98723 18.6791 5 14.9997 5C11.3202 5 8.33301 7.98723 8.33301 11.6667V11.6667" stroke="white" stroke-width="3.33333" stroke-linecap="round" stroke-linejoin="round"/>
</svg>
